<?xml version="1.0" encoding="utf-8"?>
<!-- Generator: Adobe Illustrator 15.0.0, SVG Export Plug-In . SVG Version: 6.00 Build 0)  -->
<!DOCTYPE svg PUBLIC "-//W3C//DTD SVG 1.1//EN" "http://www.w3.org/Graphics/SVG/1.1/DTD/svg11.dtd">
<svg version="1.1" id="Layer_1" xmlns="http://www.w3.org/2000/svg" xmlns:xlink="http://www.w3.org/1999/xlink" x="0px" y="0px"
	 width="353.82px" height="53.375px" viewBox="0 0 353.82 53.375" enable-background="new 0 0 353.82 53.375" xml:space="preserve">
<radialGradient id="SVGID_1_" cx="181.1912" cy="37.5781" r="184.3252" gradientTransform="matrix(0.686 0 0 0.6832 52.6142 -0.1341)" gradientUnits="userSpaceOnUse">
	<stop  offset="0" style="stop-color:#231F20"/>
	<stop  offset="1" style="stop-color:#231F20;stop-opacity:0"/>
</radialGradient>
<rect x="0" y="-0.422" fill="url(#SVGID_1_)" stroke="#231F20" stroke-miterlimit="10" width="353.82" height="51.922"/>
<g>
	<g>
		
			<image overflow="visible" enable-background="new    " width="429" height="126" xlink:href="671C8DAA.png"  transform="matrix(1 0 0 1 -36.1243 -35.7505)">
		</image>
	</g>
	<polygon fill="none" stroke="#757576" stroke-miterlimit="10" points="271.527,0.75 351.294,27.023 356.044,32.125 353.169,43.625 
		345.919,52.75 258.793,53.375 253.418,52.125 201.793,42.875 154.25,42.875 102.625,52.125 97.25,53.375 10.125,52.75 
		2.875,43.625 0,32.125 4.75,27.023 84.515,0.75 	"/>
</g>
<g>
	<g>
		
			<image overflow="visible" enable-background="new    " width="245" height="122" xlink:href="671C8DAB.png"  transform="matrix(1 0 0 1 -34.1243 -33.7505)">
		</image>
	</g>
	<polygon fill="none" stroke="#757576" stroke-miterlimit="10" points="153.801,40.917 174.515,41.083 174.515,2.847 84.516,2.547 
		6.164,28.29 1.886,32.338 4.301,43.083 11.708,51.25 96.75,51.5 	"/>
</g>
<g>
	<g>
		
			<image overflow="visible" enable-background="new    " width="245" height="122" xlink:href="671C8DAD.png"  transform="matrix(1 0 0 1 144.8757 -33.7505)">
		</image>
	</g>
	<polygon fill="none" stroke="#757576" stroke-miterlimit="10" points="201.905,40.917 181.192,41.083 181.192,2.847 271.191,2.547 
		349.544,28.29 353.82,32.338 351.406,43.083 343.999,51.25 258.957,51.5 	"/>
</g>
<radialGradient id="SVGID_2_" cx="61.0149" cy="-215.5864" r="46.4962" gradientTransform="matrix(0.9999 -0.0073 -0.0122 -0.6009 5.5657 -101.8409)" gradientUnits="userSpaceOnUse">
	<stop  offset="0" style="stop-color:#5FFFF0"/>
	<stop  offset="0.006" style="stop-color:#66FDEF"/>
	<stop  offset="0.0371" style="stop-color:#85F5EA"/>
	<stop  offset="0.0724" style="stop-color:#A1EDE7"/>
	<stop  offset="0.1123" style="stop-color:#B7E7E3"/>
	<stop  offset="0.1588" style="stop-color:#C8E3E1"/>
	<stop  offset="0.2163" style="stop-color:#D3DFDF"/>
	<stop  offset="0.2971" style="stop-color:#DADEDE"/>
	<stop  offset="0.5212" style="stop-color:#DCDDDE"/>
	<stop  offset="0.7271" style="stop-color:#DADEDE"/>
	<stop  offset="0.8013" style="stop-color:#D3DFDF"/>
	<stop  offset="0.8541" style="stop-color:#C8E3E1"/>
	<stop  offset="0.8969" style="stop-color:#B7E7E3"/>
	<stop  offset="0.9335" style="stop-color:#A1EDE7"/>
	<stop  offset="0.9659" style="stop-color:#85F5EA"/>
	<stop  offset="0.9945" style="stop-color:#66FDEF"/>
	<stop  offset="1" style="stop-color:#5FFFF0"/>
</radialGradient>
<polygon fill="url(#SVGID_2_)" points="126.375,41.75 101.708,46.857 19.875,47.25 12.375,29.5 81.75,7.333 101.542,7.208 "/>
<linearGradient id="SVGID_3_" gradientUnits="userSpaceOnUse" x1="63.8787" y1="4.855" x2="63.8787" y2="43.6704" gradientTransform="matrix(0.9999 -0.0122 -0.0122 -0.9999 5.5657 52.2867)">
	<stop  offset="0" style="stop-color:#00409F"/>
	<stop  offset="0.0391" style="stop-color:#003F9F"/>
	<stop  offset="0.5212" style="stop-color:#003B9F"/>
	<stop  offset="0.6454" style="stop-color:#033D9F"/>
	<stop  offset="0.7201" style="stop-color:#0B42A0"/>
	<stop  offset="0.7818" style="stop-color:#194CA1"/>
	<stop  offset="0.8363" style="stop-color:#2E59A3"/>
	<stop  offset="0.8861" style="stop-color:#486AA5"/>
	<stop  offset="0.9325" style="stop-color:#6880A7"/>
	<stop  offset="0.9753" style="stop-color:#8E98AA"/>
	<stop  offset="1" style="stop-color:#A7A9AC"/>
</linearGradient>
<polygon fill="url(#SVGID_3_)" points="125.433,41.393 101.279,46.264 20.137,46.857 13.051,29.504 81.877,7.683 101.446,7.539 "/>
<radialGradient id="SVGID_4_" cx="-180.1887" cy="-212.314" r="46.4465" gradientTransform="matrix(-0.9999 -0.0073 0.0122 -0.6009 108.9226 -101.8409)" gradientUnits="userSpaceOnUse">
	<stop  offset="0" style="stop-color:#5FFFF0"/>
	<stop  offset="0.006" style="stop-color:#66FDEF"/>
	<stop  offset="0.0371" style="stop-color:#85F5EA"/>
	<stop  offset="0.0724" style="stop-color:#A1EDE7"/>
	<stop  offset="0.1123" style="stop-color:#B7E7E3"/>
	<stop  offset="0.1588" style="stop-color:#C8E3E1"/>
	<stop  offset="0.2163" style="stop-color:#D3DFDF"/>
	<stop  offset="0.2971" style="stop-color:#DADEDE"/>
	<stop  offset="0.5212" style="stop-color:#DCDDDE"/>
	<stop  offset="0.7271" style="stop-color:#DADEDE"/>
	<stop  offset="0.8013" style="stop-color:#D3DFDF"/>
	<stop  offset="0.8541" style="stop-color:#C8E3E1"/>
	<stop  offset="0.8969" style="stop-color:#B7E7E3"/>
	<stop  offset="0.9335" style="stop-color:#A1EDE7"/>
	<stop  offset="0.9659" style="stop-color:#85F5EA"/>
	<stop  offset="0.9945" style="stop-color:#66FDEF"/>
	<stop  offset="1" style="stop-color:#5FFFF0"/>
</radialGradient>
<polygon fill="url(#SVGID_4_)" points="229.458,41.583 254.102,46.698 336.052,47.155 343.208,29.251 274.208,7.083 254.125,7 "/>
<linearGradient id="SVGID_5_" gradientUnits="userSpaceOnUse" x1="-177.3303" y1="7.7988" x2="-177.3303" y2="46.6138" gradientTransform="matrix(-0.9999 -0.0122 0.0122 -0.9999 108.9206 52.2867)">
	<stop  offset="0" style="stop-color:#00409F"/>
	<stop  offset="0.0391" style="stop-color:#003F9F"/>
	<stop  offset="0.5212" style="stop-color:#003B9F"/>
	<stop  offset="0.6454" style="stop-color:#033D9F"/>
	<stop  offset="0.7201" style="stop-color:#0B42A0"/>
	<stop  offset="0.7818" style="stop-color:#194CA1"/>
	<stop  offset="0.8363" style="stop-color:#2E59A3"/>
	<stop  offset="0.8861" style="stop-color:#486AA5"/>
	<stop  offset="0.9325" style="stop-color:#6880A7"/>
	<stop  offset="0.9753" style="stop-color:#8E98AA"/>
	<stop  offset="1" style="stop-color:#A7A9AC"/>
</linearGradient>
<polygon fill="url(#SVGID_5_)" points="230.274,41.393 254.428,46.264 335.57,46.857 342.656,29.504 273.83,7.683 254.261,7.539 "/>
<linearGradient id="SVGID_6_" gradientUnits="userSpaceOnUse" x1="178.4148" y1="14.4766" x2="178.4148" y2="45.8071" gradientTransform="matrix(1 0 0 -1 -0.02 52.4697)">
	<stop  offset="0" style="stop-color:#A7A9AC"/>
	<stop  offset="0.0819" style="stop-color:#B6B7BA"/>
	<stop  offset="0.2339" style="stop-color:#CBCCCE"/>
	<stop  offset="0.3821" style="stop-color:#D8D9DA"/>
	<stop  offset="0.5212" style="stop-color:#DCDDDE"/>
	<stop  offset="0.701" style="stop-color:#D9DBDC"/>
	<stop  offset="0.809" style="stop-color:#D1D2D4"/>
	<stop  offset="0.8981" style="stop-color:#C3C4C6"/>
	<stop  offset="0.9765" style="stop-color:#AFB1B3"/>
	<stop  offset="1" style="stop-color:#A7A9AC"/>
</linearGradient>
<polygon fill="url(#SVGID_6_)" stroke="#757576" stroke-miterlimit="10" points="234.125,29.251 188.125,37.993 166.708,37.917 
	121.363,29.086 115.375,20.859 113.596,6.663 243.192,6.663 239.375,22.328 "/>
<ellipse fill="none" stroke="#9FFDFF" stroke-width="0.5" stroke-miterlimit="10" cx="94.458" cy="28.335" rx="14.167" ry="13.813"/>
<linearGradient id="SVGID_7_" gradientUnits="userSpaceOnUse" x1="38.467" y1="19.8184" x2="62.6575" y2="19.8184" gradientTransform="matrix(1 0 0 -1 -0.02 52.4697)">
	<stop  offset="0" style="stop-color:#F8FF5F"/>
	<stop  offset="0.2017" style="stop-color:#F5FD60"/>
	<stop  offset="0.3337" style="stop-color:#EDF662"/>
	<stop  offset="0.4458" style="stop-color:#DEEA66"/>
	<stop  offset="0.5468" style="stop-color:#C8D96B"/>
	<stop  offset="0.6402" style="stop-color:#ADC472"/>
	<stop  offset="0.7282" style="stop-color:#8BA97B"/>
	<stop  offset="0.8119" style="stop-color:#638985"/>
	<stop  offset="0.8908" style="stop-color:#366591"/>
	<stop  offset="0.9659" style="stop-color:#033D9E"/>
	<stop  offset="0.9697" style="stop-color:#003B9F"/>
</linearGradient>
<path fill="url(#SVGID_7_)" stroke="#9FFDFF" stroke-width="0.5" stroke-miterlimit="10" d="M38.66,44.973
	c-1.664-11.517,6.425-26.802,23.978-24.389v8.139c-8.023,0-14.527,7.274-14.527,16.25H38.66z"/>
<rect x="55.451" y="34.587" fill="none" width="13.791" height="0.739"/>
<text transform="matrix(1 0 0 1 55.4509 35.2969)" font-family="'MyriadPro-Regular'" font-size="1">Sankalan Rocks @ Sankalan.info</text>
<rect x="55.451" y="33.445" fill="none" width="13.791" height="1.049"/>
<text transform="matrix(1 0 0 1 55.4509 34.1553)" font-family="'MyriadPro-Regular'" font-size="1">Sankalan Rocks @ Sankalan.info</text>
<rect x="55.451" y="36.839" fill="none" width="13.791" height="0.739"/>
<text transform="matrix(1 0 0 1 55.4509 37.5488)" font-family="'MyriadPro-Regular'" font-size="1">Sankalan Rocks @ Sankalan.info</text>
<rect x="55.451" y="35.697" fill="none" width="13.791" height="1.049"/>
<text transform="matrix(1 0 0 1 55.4509 36.4072)" font-family="'MyriadPro-Regular'" font-size="1">Sankalan Rocks @ Sankalan.info</text>
<rect x="55.451" y="39.135" fill="none" width="13.791" height="0.739"/>
<text transform="matrix(1 0 0 1 55.4509 39.8447)" font-family="'MyriadPro-Regular'" font-size="1">Sankalan Rocks @ Sankalan.info</text>
<rect x="55.451" y="37.993" fill="none" width="13.791" height="1.049"/>
<text transform="matrix(1 0 0 1 55.4509 38.7031)" font-family="'MyriadPro-Regular'" font-size="1">Sankalan Rocks @ Sankalan.info</text>
<rect x="55.451" y="41.387" fill="none" width="13.791" height="0.739"/>
<text transform="matrix(1 0 0 1 55.4509 42.0967)" font-family="'MyriadPro-Regular'" font-size="1">Sankalan Rocks @ Sankalan.info</text>
<rect x="55.451" y="40.245" fill="none" width="13.791" height="1.049"/>
<text transform="matrix(1 0 0 1 55.4509 40.9551)" font-family="'MyriadPro-Regular'" font-size="1">Sankalan Rocks @ Sankalan.info</text>
<path fill="#F8FF5F" stroke="#9FFDFF" stroke-width="0.5" stroke-miterlimit="10" d="M105.163,28.869
	c1.395,4.488-1.34,11.102-9.291,11.25l-0.462-3.248c3.572-0.508,6.055-3.822,5.546-7.404L105.163,28.869z"/>
<path fill="#FF1E00" stroke="#9FFDFF" stroke-width="0.5" stroke-miterlimit="10" d="M84.146,30.018
	c-1.881-4.309,0.105-11.182,7.993-12.207l0.816,3.177c-3.494,0.899-5.596,4.467-4.694,7.971L84.146,30.018z"/>
<line fill="none" stroke="#9FFDFF" stroke-width="0.5" stroke-miterlimit="10" x1="93.48" y1="27.6" x2="96.527" y2="32.434"/>
<line fill="none" stroke="#9FFDFF" stroke-width="0.5" stroke-miterlimit="10" x1="97.01" y1="27.455" x2="93.003" y2="31.527"/>
<rect x="254.875" y="23.609" fill="none" width="18.349" height="15.475"/>
<text transform="matrix(1 0 0 1 254.8748 24.6748)" font-family="'MyriadPro-Regular'" font-size="1.5">Orbitor $&gt; Login Successful</text>
<text transform="matrix(1 0 0 1 254.8748 26.4746)" font-family="'MyriadPro-Regular'" font-size="1.5">Initilainzing Engine Ignition</text>
<text transform="matrix(1 0 0 1 254.8748 28.2744)" font-family="'MyriadPro-Regular'" font-size="1.5">Launching.......</text>
<text transform="matrix(1 0 0 1 254.8748 30.0742)" font-family="'MyriadPro-Regular'" font-size="1.5">Launch Successful</text>
<text transform="matrix(1 0 0 1 254.8748 31.875)" font-family="'MyriadPro-Regular'" font-size="1.5">Speeding Up...</text>
<text transform="matrix(1 0 0 1 254.8748 33.6748)" font-family="'MyriadPro-Regular'" font-size="1.5">Orbitor $&gt; </text>
<polyline fill="none" stroke="#9FFDFF" stroke-width="0.5" stroke-miterlimit="10" points="257.902,19.417 253.376,19.417 
	253.376,39.084 258.016,39.084 "/>
<polyline fill="none" stroke="#9FFDFF" stroke-width="0.5" stroke-miterlimit="10" points="270.404,39.084 276.042,39.084 
	276.042,19.417 270.179,19.417 "/>
<rect x="279.709" y="41.583" fill="#00DF12" stroke="#9FFDFF" stroke-width="0.2" stroke-miterlimit="10" width="2.833" height="3.167"/>
<rect x="281.126" y="41.583" fill="#33FF00" stroke="#9FFDFF" stroke-width="0.2" stroke-miterlimit="10" width="2.833" height="3.167"/>
<rect x="282.543" y="41.583" fill="#00FF67" stroke="#9FFDFF" stroke-width="0.2" stroke-miterlimit="10" width="2.833" height="3.167"/>
<rect x="283.959" y="41.583" fill="#ADFF1F" stroke="#9FFDFF" stroke-width="0.2" stroke-miterlimit="10" width="2.833" height="3.167"/>
<rect x="288.208" y="41.583" fill="#FF463F" stroke="#9FFDFF" stroke-width="0.2" stroke-miterlimit="10" width="2.833" height="3.167"/>
<rect x="285.375" y="41.583" fill="#3FFF7F" stroke="#9FFDFF" stroke-width="0.2" stroke-miterlimit="10" width="2.833" height="3.167"/>
<rect x="279.709" y="20.859" fill="none" width="21.251" height="2.75"/>
<text transform="matrix(1 0 0 1 279.7087 22.9893)" fill="#5FFCFF" font-family="'MyriadPro-Regular'" font-size="3">SANKALAN.INFO</text>
<rect x="289.625" y="41.583" fill="#0B00BF" stroke="#9FFDFF" stroke-width="0.2" stroke-miterlimit="10" width="1.416" height="3.167"/>
<rect x="301.77" y="30.621" fill="none" width="12.884" height="11.914"/>
<text transform="matrix(0.912 0 0 1 301.7703 31.4414)" font-family="'MyriadPro-Regular'" font-size="1.1549">Orbitor $&gt; Login Successful</text>
<text transform="matrix(0.912 0 0 1 301.7703 32.8271)" font-family="'MyriadPro-Regular'" font-size="1.1549">Initilainzing Engine Ignition</text>
<text transform="matrix(0.912 0 0 1 301.7703 34.2119)" font-family="'MyriadPro-Regular'" font-size="1.1549">Launching.......</text>
<text transform="matrix(0.912 0 0 1 301.7703 35.5986)" font-family="'MyriadPro-Regular'" font-size="1.1549">Launch Successful</text>
<text transform="matrix(0.912 0 0 1 301.7703 36.9844)" font-family="'MyriadPro-Regular'" font-size="1.1549">Speeding Up...</text>
<text transform="matrix(0.912 0 0 1 301.7703 38.3701)" font-family="'MyriadPro-Regular'" font-size="1.1549">Orbitor $&gt; </text>
<polyline fill="none" stroke="#9FFDFF" stroke-width="0.5" stroke-miterlimit="10" points="303.896,27.395 300.718,27.395 
	300.718,42.535 303.975,42.535 "/>
<polyline fill="none" stroke="#9FFDFF" stroke-width="0.5" stroke-miterlimit="10" points="312.675,42.535 316.634,42.535 
	316.634,27.395 312.516,27.395 "/>
</svg>
